#!OML:ASF E:\emotionWalksFemale\Project 1\Capture day 1\Session 1\Female1.ASF
:FULLY-SPECIFIED
:DEGREES
336
root 10.6399 15.57 19.2771 361.14 171.037 -359.997
lowerback 8.06959 1.326 3.95982
upperback -5.44001 2.54019 0.905161
thorax -10.2423 1.05357 -1.68897
lowerneck -7.10181 1.41864 -3.28702
upperneck 9.72597 2.165 2.21657
head 4.43972 1.10658 1.4758
rclavicle 2.40032e-014 4.13472e-014
rhumerus -47.3802 11.257 -89.5571
rradius 43.4056
rwrist 7.37314
rhand -5.15485 -57.4557
rfingers 7.12502
rthumb 20.6446 -86.3778
lclavicle 2.40032e-014 4.13472e-014
lhumerus -45.6416 -4.81928 90.1863
lradius 36.6848
lwrist -14.9815
lhand 3.10275 -32.0945
lfingers 7.12502
lthumb 28.5587 -4.25574
rfemur -0.52098 24.9181 23.3199
rtibia 15.6163
rfoot -15.1597 -32.6781
rtoes -0.33588
lfemur -2.34123 -26.8162 -22.6222
ltibia 19.0596
lfoot -13.8075 32.6306
ltoes -53.3737
337
root 10.6379 15.5687 19.2787 361.035 170.991 -360.051
lowerback 8.08512 1.34096 3.90467
upperback -5.41598 2.54237 0.839501
thorax -10.2232 1.05448 -1.72857
lowerneck -7.07528 1.42567 -3.29208
upperneck 9.83186 2.16943 2.30841
head 4.472 1.11472 1.50998
rclavicle 2.6339e-015 -2.46493e-014
rhumerus -47.248 11.2086 -89.6963
rradius 43.5902
rwrist 7.02426
rhand -5.03292 -57.0121
rfingers 7.12502
rthumb 20.7618 -85.9214
lclavicle 2.6339e-015 -2.46493e-014
lhumerus -45.5376 -4.52794 90.0597
lradius 36.52
lwrist -15.2492
lhand 2.89492 -31.9661
lfingers 7.12502
lthumb 28.3601 -4.09414
rfemur -0.466752 24.7374 23.2609
rtibia 15.6676
rfoot -15.265 -32.4634
rtoes -0.634037
lfemur -2.20247 -26.8003 -22.74
ltibia 19.0077
lfoot -13.6719 32.7289
ltoes -53.6511
338
root 10.6376 15.5689 19.2823 360.978 171.023 -360.027
lowerback 8.18232 1.34734 3.91628
upperback -5.46121 2.5527 0.771724
thorax -10.3276 1.05247 -1.81366
lowerneck -6.93384 1.44139 -3.29347
upperneck 9.87288 2.1752 2.46536
head 4.45681 1.12732 1.56243
rclavicle 8.34896e-015 3.97569e-015
rhumerus -47.1782 11.0016 -89.8194
rradius 43.7825
rwrist 6.94237
rhand -4.41573 -56.7126
rfingers 7.12502
rthumb 21.3547 -85.5559
lclavicle 8.34896e-015 3.97569e-015
lhumerus -45.4804 -4.39763 89.9692
lradius 36.1977
lwrist -15.7699
lhand 2.38808 -32.211
lfingers 7.12502
lthumb 27.8757 -4.25939
rfemur -0.390641 24.6475 23.3048
rtibia 15.6254
rfoot -15.2262 -32.4318
rtoes -0.61489
lfemur -2.16599 -26.6618 -22.7134
ltibia 19.0394
lfoot -13.7973 32.5781
ltoes -53.73
339
root 10.6373 15.5685 19.2844 360.937 171.047 -359.917
lowerback 8.1959 1.38144 4.03141
upperback -5.47837 2.61139 0.73004
thorax -10.3455 1.07034 -1.93326
lowerneck -6.76254 1.42738 -3.36839
upperneck 9.82881 2.14379 2.64327
head 4.40552 1.11903 1.63093
rclavicle -1.95803e-014 -1.43125e-014
rhumerus -47.1266 10.7597 -89.9202
rradius 43.9557
rwrist 6.63877
rhand -4.17849 -56.9875
rfingers 7.12502
rthumb 21.5826 -85.8048
lclavicle -1.95803e-014 -1.43125e-014
lhumerus -45.3819 -4.44283 89.9525
lradius 35.8189
lwrist -16.2437
lhand 1.9134 -32.7196
lfingers 7.12502
lthumb 27.4218 -4.69527
rfemur -0.286672 24.6022 23.4484
rtibia 15.5426
rfoot -15.0497 -32.4461
rtoes -0.666441
lfemur -2.13806 -26.5377 -22.6014
ltibia 19.1109
lfoot -14.0014 32.3932
ltoes -53.5533
340
root 10.6351 15.5661 19.2846 360.86 171.125 -359.852
lowerback 8.15691 1.39694 4.12969
upperback -5.41861 2.63288 0.695329
thorax -10.2488 1.07377 -2.02598
lowerneck -6.75558 1.42373 -3.51303
upperneck 9.74302 2.13254 2.82757
head 4.37154 1.11643 1.71766
rclavicle 4.17448e-015 -2.42517e-014
rhumerus -46.9345 10.5717 -89.9769
rradius 43.9832
rwrist 6.09679
rhand -4.31237 -57.2086
rfingers 7.12502
rthumb 21.454 -86.0406
lclavicle 4.17448e-015 -2.42517e-014
lhumerus -45.0911 -4.43565 89.9769
lradius 35.5098
lwrist -16.5489
lhand 1.80825 -32.8743
lfingers 7.12502
lthumb 27.3212 -4.83407
rfemur -0.114296 24.5552 23.5599
rtibia 15.4345
rfoot -14.9579 -32.4757
rtoes -0.779747
lfemur -2.0981 -26.482 -22.5639
ltibia 19.1919
lfoot -13.7594 32.3459
ltoes -53.8244
341
root 10.6334 15.5635 19.286 360.786 171.29 -359.869
lowerback 8.19242 1.36428 4.09631
upperback -5.39415 2.58068 0.674911
thorax -10.2461 1.04912 -2.02131
lowerneck -6.79298 1.39902 -3.54025
upperneck 9.68202 2.10316 2.79935
head 4.35819 1.09843 1.71073
rclavicle -5.56597e-015 -4.77083e-015
rhumerus -46.8612 10.8044 -90.3889
rradius 43.9435
rwrist 4.5312
rhand -5.60192 -57.3394
rfingers 7.12502
rthumb 20.215 -86.3075
lclavicle -5.56597e-015 -4.77083e-015
lhumerus -44.8537 -4.28498 90.0567
lradius 35.2729
lwrist -16.8885
lhand 1.64971 -32.6247
lfingers 7.12502
lthumb 27.1695 -4.5607
rfemur 0.0629571 24.5373 23.5951
rtibia 15.3327
rfoot -15.0706 -32.593
rtoes -0.439556
lfemur -2.10081 -26.4234 -22.5862
ltibia 19.2648
lfoot -13.4339 32.2739
ltoes -54.2606
342
root 10.6322 15.5631 19.2897 360.774 171.503 -359.871
lowerback 8.28442 1.32057 4.05434
upperback -5.45384 2.52546 0.665447
thorax -10.3724 1.02205 -2.00364
lowerneck -6.76626 1.32536 -3.51315
upperneck 9.70656 2.01054 2.71519
head 4.36583 1.05002 1.67189
rclavicle -5.86415e-015 -7.15625e-015
rhumerus -46.7547 10.5729 -90.3347
rradius 44.0434
rwrist 5.28483
rhand -5.5476 -55.4153
rfingers 7.12502
rthumb 20.2672 -84.3779
lclavicle -5.86415e-015 -7.15625e-015
lhumerus -44.8433 -4.08039 90.0544
lradius 34.5639
lwrist -18.6614
lhand -1.32914 -34.2102
lfingers 7.12502
lthumb 24.3167 -5.73264
rfemur 0.156933 24.5429 23.6351
rtibia 15.2571
rfoot -15.1986 -32.7749
rtoes -0.274595
lfemur -2.19679 -26.3476 -22.5415
ltibia 19.3105
lfoot -13.0388 32.1802
ltoes -54.7144
343
root 10.6296 15.5639 19.2926 360.763 171.664 -359.817
lowerback 8.25781 1.29641 4.10868
upperback -5.44429 2.49466 0.636936
thorax -10.3445 1.00265 -2.05833
lowerneck -6.89594 1.24165 -3.46749
upperneck 9.85744 1.90197 2.69147
head 4.45135 0.998021 1.65494
rclavicle -6.4605e-016 1.39149e-014
rhumerus -46.5913 10.2645 -90.2468
rradius 44.1263
rwrist 6.04248
rhand -3.65241 -56.3482
rfingers 7.12502
rthumb 22.0877 -85.1067
lclavicle -6.4605e-016 1.39149e-014
lhumerus -44.7765 -4.05959 90.064
lradius 34.1367
lwrist -19.9132
lhand -3.55798 -35.3859
lfingers 7.12502
lthumb 22.1784 -6.63815
rfemur 0.22075 24.5426 23.7174
rtibia 15.1949
rfoot -15.2129 -32.8981
rtoes -0.303691
lfemur -2.25827 -26.3163 -22.4622
ltibia 19.3378
lfoot -12.719 32.1169
ltoes -55.03
344
root 10.6266 15.5664 19.2925 360.747 171.555 -359.753
lowerback 8.14497 1.3463 4.1363
upperback -5.3886 2.55232 0.617406
thorax -10.2091 1.03086 -2.09873
lowerneck -7.07541 1.24794 -3.42612
upperneck 9.94439 1.90655 2.72591
head 4.51941 1.00352 1.6646
rclavicle -4.13472e-014 -3.65764e-014
rhumerus -46.3848 10.1637 -90.3407
rradius 43.927
rwrist 6.06123
rhand -3.44018 -56.5038
rfingers 7.12502
rthumb 22.2915 -85.238
lclavicle -4.13472e-014 -3.65764e-014
lhumerus -44.5339 -4.11029 90.1442
lradius 35.117
lwrist -17.1624
lhand 2.15029 -33.2714
lfingers 7.12502
lthumb 27.6483 -5.28314
rfemur 0.242549 24.5375 23.7517
rtibia 15.1049
rfoot -15.0615 -32.7603
rtoes -0.363427
lfemur -2.24053 -26.2477 -22.4354
ltibia 19.4007
lfoot -13.1239 32.1173
ltoes -54.7324
